<svg width="81" height="80" viewBox="0 0 81 80" fill="none" xmlns="http://www.w3.org/2000/svg">
<circle cx="40.998" cy="40" r="40" fill="#E5F1FF"/>
<path opacity="0.3" fill-rule="evenodd" clip-rule="evenodd" d="M27.681 45.3701L24.208 56.6581L35.496 53.1851L27.681 45.3701Z" fill="#377DFF"/>
<path fill-rule="evenodd" clip-rule="evenodd" d="M41.575 22.793C51.1665 22.793 58.942 30.5684 58.942 40.16C58.942 49.7515 51.1665 57.527 41.575 57.527C31.9835 57.527 24.208 49.7515 24.208 40.16C24.208 30.5684 31.9835 22.793 41.575 22.793H41.575ZM31.446 42.86C34.068 46.793 37.486 48.843 41.575 48.843C45.664 48.843 49.081 46.793 51.708 42.86C52.0646 42.3438 52.1151 41.6754 51.8401 41.1115C51.5652 40.5476 51.0075 40.1758 50.3813 40.1388C49.755 40.1018 49.1574 40.4054 48.818 40.933C46.809 43.947 44.438 45.37 41.58 45.37C38.722 45.37 36.351 43.947 34.342 40.933C34.0026 40.4054 33.405 40.1018 32.7788 40.1388C32.1525 40.1758 31.5948 40.5476 31.3199 41.1115C31.045 41.6754 31.0955 42.3438 31.452 42.86L31.446 42.86Z" fill="#377DFF"/>
</svg>
