<svg width="81" height="80" viewBox="0 0 81 80" fill="none" xmlns="http://www.w3.org/2000/svg">
<circle cx="40.998" cy="40" r="40" fill="#FFE3DE"/>
<path opacity="0.3" fill-rule="evenodd" clip-rule="evenodd" d="M26.0441 54.8179H55.4101C56.8411 54.8179 58.0011 53.6579 58.0011 52.2269V33.2269C58.0011 31.7959 56.8411 30.6359 55.4101 30.6359H37.2721L32.8531 26.2109C32.3663 25.724 31.7057 25.4509 31.0171 25.4519H26.0441C24.6132 25.4519 23.4531 26.6119 23.4531 28.0429V52.2259C23.4528 52.913 23.7256 53.5723 24.2115 54.0585C24.6974 54.5447 25.3565 54.8178 26.0439 54.8179H26.0441Z" fill="#FF715B"/>
<path opacity="0.3" fill-rule="evenodd" clip-rule="evenodd" d="M26.9082 51.3629L37.2722 37.5439L47.6372 51.3629H26.9082Z" fill="#FF715B"/>
<path fill-rule="evenodd" clip-rule="evenodd" d="M38.999 51.3631L45.909 42.7261L52.819 51.3631L38.999 51.3631Z" fill="#FF715B"/>
<path opacity="0.3" fill-rule="evenodd" clip-rule="evenodd" d="M51.091 39.2709C52.522 39.2709 53.682 38.1108 53.682 36.6799C53.682 35.2489 52.522 34.0889 51.091 34.0889C49.66 34.0889 48.5 35.2489 48.5 36.6799C48.5 38.1108 49.66 39.2709 51.091 39.2709V39.2709Z" fill="#FF715B"/>
</svg>
