<svg width="81" height="80" viewBox="0 0 81 80" fill="none" xmlns="http://www.w3.org/2000/svg">
<circle cx="40.998" cy="40" r="40" fill="#EAFAF3"/>
<path opacity="0.3" fill-rule="evenodd" clip-rule="evenodd" d="M53.569 33.1008C50.9887 33.1008 48.897 31.0091 48.897 28.4288C48.897 25.8486 50.9887 23.7568 53.569 23.7568C56.1493 23.7568 58.241 25.8486 58.241 28.4288C58.241 31.0091 56.1493 33.1008 53.569 33.1008H53.569ZM53.569 57.3938C50.9887 57.3938 48.897 55.3021 48.897 52.7218C48.897 50.1416 50.9887 48.0498 53.569 48.0498C56.1493 48.0498 58.241 50.1416 58.241 52.7218C58.241 55.3021 56.1493 57.3938 53.569 57.3938ZM29.276 57.3938C26.6957 57.3938 24.604 55.3021 24.604 52.7218C24.604 50.1416 26.6957 48.0498 29.276 48.0498C31.8563 48.0498 33.948 50.1416 33.948 52.7218C33.948 55.3021 31.8563 57.3938 29.276 57.3938H29.276Z" fill="#2DCA8C"/>
<path fill-rule="evenodd" clip-rule="evenodd" d="M29.276 33.1008C26.6957 33.1008 24.604 31.0091 24.604 28.4288C24.604 25.8486 26.6957 23.7568 29.276 23.7568C31.8563 23.7568 33.948 25.8486 33.948 28.4288C33.948 31.0091 31.8563 33.1008 29.276 33.1008ZM39.554 25.6258H43.291C44.3061 25.6493 45.1168 26.479 45.1168 27.4943C45.1168 28.5097 44.3061 29.3394 43.291 29.3628H39.554C38.5389 29.3394 37.7282 28.5097 37.7282 27.4943C37.7282 26.479 38.5389 25.6493 39.554 25.6258L39.554 25.6258ZM39.554 51.7878H43.291C44.3061 51.8113 45.1168 52.641 45.1168 53.6563C45.1168 54.6717 44.3061 55.5014 43.291 55.5248H39.554C38.5389 55.5013 37.7282 54.6717 37.7282 53.6563C37.7282 52.641 38.5389 51.8113 39.554 51.7878L39.554 51.7878ZM28.341 36.8378C29.3732 36.8378 30.21 37.6746 30.21 38.7068L30.21 42.4438C30.1865 43.4589 29.3569 44.2696 28.3415 44.2696C27.3261 44.2696 26.4965 43.4589 26.473 42.4438L26.473 38.7068C26.473 37.675 27.3092 36.8384 28.341 36.8378H28.341ZM54.503 36.8378C55.5352 36.8378 56.372 37.6746 56.372 38.7068V42.4438C56.3485 43.4589 55.5189 44.2696 54.5035 44.2696C53.4881 44.2696 52.6585 43.4589 52.635 42.4438V38.7068C52.635 37.6746 53.4718 36.8378 54.504 36.8378H54.503Z" fill="#2DCA8C"/>
</svg>
