<svg width="81" height="80" viewBox="0 0 81 80" fill="none" xmlns="http://www.w3.org/2000/svg">
<circle cx="40.998" cy="40" r="40" fill="#EAFAF3"/>
<path fill-rule="evenodd" clip-rule="evenodd" d="M20.312 52.2869L32.371 27.2629L44.432 52.2869H41.014L37.947 45.8049H26.794L23.732 52.2869H20.312ZM32.371 34.0229L28.189 42.8769H36.553L32.371 34.0229Z" fill="#2DCA8C"/>
<path opacity="0.3" fill-rule="evenodd" clip-rule="evenodd" d="M57.1852 52.287V50.542C55.655 51.8833 53.6786 52.6041 51.6442 52.563C49.2576 52.6004 46.9592 51.6616 45.2814 49.9639C43.6035 48.2662 42.6917 45.957 42.7572 43.571C42.6926 41.1857 43.6046 38.8774 45.2821 37.1804C46.9597 35.4834 49.2573 34.5449 51.6432 34.582C53.6777 34.5409 55.654 35.2617 57.1842 36.603V34.861H60.1842V52.287H57.1852ZM51.7132 49.742C53.9053 49.8225 55.9803 48.752 57.1852 46.919V40.228C55.9803 38.395 53.9053 37.3245 51.7132 37.405C50.1065 37.4093 48.5716 38.0711 47.4655 39.2365C46.3595 40.4019 45.7787 41.9693 45.8582 43.574C45.7789 45.1785 46.3599 46.7456 47.4659 47.9108C48.5719 49.076 50.1067 49.7377 51.7132 49.742H51.7132Z" fill="#2DCA8C"/>
</svg>
