<svg width="81" height="80" viewBox="0 0 81 80" fill="none" xmlns="http://www.w3.org/2000/svg">
<circle cx="40.998" cy="40" r="40" fill="#FFF2D8"/>
<path fill-rule="evenodd" clip-rule="evenodd" d="M41.4141 50.7919L33.7841 54.8029C33.1548 55.1335 32.3924 55.0783 31.8173 54.6604C31.2422 54.2426 30.9541 53.5345 31.0741 52.8339L32.5311 44.3339L26.3561 38.3209C25.8469 37.8242 25.6641 37.0814 25.8844 36.4051C26.1048 35.7288 26.6901 35.2363 27.3941 35.1349L35.9241 33.8959L39.7391 26.1649C40.0538 25.5274 40.7031 25.1238 41.4141 25.1238C42.125 25.1238 42.7744 25.5274 43.0891 26.1649L46.9041 33.8949L55.4341 35.1339C56.1376 35.2363 56.722 35.7291 56.9416 36.4052C57.1613 37.0814 56.9781 37.8236 56.4691 38.3199L50.2971 44.3369L51.7541 52.8369C51.8741 53.5375 51.586 54.2456 51.0109 54.6634C50.4358 55.0813 49.6734 55.1365 49.0441 54.8059L41.4141 50.7919Z" fill="#FFBE3D"/>
</svg>
