<svg width="81" height="80" viewBox="0 0 81 80" fill="none" xmlns="http://www.w3.org/2000/svg">
<circle cx="40.998" cy="40" r="40" fill="#E5F1FF"/>
<path fill-rule="evenodd" clip-rule="evenodd" d="M29.025 25.54H36.317C37.8275 25.54 39.052 26.7645 39.052 28.275V30.098C39.0515 31.6095 37.8266 32.8336 36.3161 32.833L29.025 32.833C27.5145 32.833 26.29 31.6085 26.29 30.098V28.275C26.29 26.7645 27.5145 25.54 29.025 25.54ZM45.432 47.416H52.724C54.2345 47.416 55.459 48.6405 55.459 50.151V51.974C55.459 53.4845 54.2345 54.709 52.724 54.709H45.432C43.9215 54.709 42.697 53.4845 42.697 51.974V50.151C42.697 48.6405 43.9215 47.416 45.432 47.416H45.432Z" fill="#377DFF"/>
<path opacity="0.3" fill-rule="evenodd" clip-rule="evenodd" d="M29.025 36.478H36.317C37.8275 36.478 39.052 37.7025 39.052 39.213V51.974C39.052 53.4845 37.8275 54.709 36.317 54.709H29.025C27.5145 54.709 26.29 53.4845 26.29 51.974V39.213C26.29 37.7025 27.5145 36.478 29.025 36.478L29.025 36.478ZM45.432 25.54H52.724C54.2345 25.54 55.459 26.7645 55.459 28.275V41.04C55.459 42.5505 54.2345 43.775 52.724 43.775H45.432C43.9215 43.775 42.697 42.5505 42.697 41.04V28.275C42.697 26.7645 43.9215 25.54 45.432 25.54H45.432Z" fill="#377DFF"/>
</svg>
